<svg width="136" height="79" viewBox="0 0 136 79" fill="none" xmlns="http://www.w3.org/2000/svg">
<path d="M88.8818 0.144531C99.8718 0.144531 110.795 4.69382 118.566 12.5062C123.463 17.4282 127.067 23.6077 129.065 30.2691C133.869 31.1808 138.406 33.5379 141.866 37.0157C146.375 41.5487 149 47.9181 149 54.3288C149 60.7396 146.375 67.111 141.866 71.6441C137.357 76.1771 131.019 78.816 124.642 78.816H15.5479C11.4774 78.816 7.43126 77.1323 4.55305 74.239C1.6748 71.3456 0 67.2779 0 63.1859C0 59.0939 1.6748 55.0285 4.55305 52.135C7.41357 49.2593 11.428 47.5805 15.473 47.5598C16.2623 40.146 19.6035 33.0099 24.8523 27.7333C30.8965 21.6571 39.3913 18.1191 47.9391 18.1191C50.0144 18.1191 52.0851 18.333 54.1199 18.7358C55.6088 16.5021 57.3044 14.4088 59.1972 12.5062C66.9683 4.69382 77.8916 0.144531 88.8818 0.144531Z" fill="#EDE9FE"/>
<path d="M91.0966 4.08643C101.682 4.08643 112.203 8.41729 119.688 15.8545C124.403 20.5402 127.875 26.4231 129.8 32.7647C134.427 33.6326 138.797 35.8765 142.129 39.1873C146.472 43.5027 149 49.5663 149 55.6692C149 61.7721 146.472 67.8377 142.129 72.1531C137.786 76.4684 131.681 78.9806 125.539 78.9806H20.4646C16.5441 78.9806 12.647 77.3778 9.87479 74.6234C7.10257 71.8689 5.48949 67.9965 5.48949 64.101C5.48949 60.2055 7.10257 56.3352 9.87479 53.5807C12.6299 50.843 16.4964 49.2449 20.3924 49.2252C21.1527 42.1673 24.3707 35.3738 29.4262 30.3506C35.2477 24.5661 43.4295 21.198 51.6624 21.198C53.6613 21.198 55.6557 21.4017 57.6154 21.7851C59.0495 19.6586 60.6827 17.6658 62.5057 15.8545C69.9906 8.41729 80.5114 4.08643 91.0966 4.08643Z" fill="#F5F3FF"/>
</svg>
