<svg width="13" height="16" viewBox="0 0 13 16" fill="none" xmlns="http://www.w3.org/2000/svg">
<path fill-rule="evenodd" clip-rule="evenodd" d="M6.13738 15.8834C6.16117 15.8973 6.17988 15.9079 6.19312 15.9154L6.21513 15.9277C6.39072 16.0244 6.60854 16.0237 6.7843 15.928L6.80688 15.9154C6.82012 15.9079 6.83882 15.8973 6.86262 15.8834C6.91021 15.8558 6.97822 15.8155 7.06373 15.7627C7.23467 15.6571 7.47599 15.5014 7.76424 15.2972C8.33977 14.8894 9.10768 14.2844 9.87728 13.4942C11.409 11.9213 13 9.55814 13 6.51898C13 2.91865 10.0899 0 6.5 0C2.91015 0 0 2.91865 0 6.51898C0 9.55814 1.59098 11.9213 3.12272 13.4942C3.89232 14.2844 4.66023 14.8894 5.23576 15.2972C5.52401 15.5014 5.76533 15.6571 5.93627 15.7627C6.02178 15.8155 6.08978 15.8558 6.13738 15.8834ZM6.5 8.88952C7.8054 8.88952 8.86364 7.8282 8.86364 6.51898C8.86364 5.20977 7.8054 4.14844 6.5 4.14844C5.1946 4.14844 4.13636 5.20977 4.13636 6.51898C4.13636 7.8282 5.1946 8.88952 6.5 8.88952Z" fill="#4F46E5"/>
</svg>
