<svg width="107" height="56" viewBox="0 0 107 56" fill="none" xmlns="http://www.w3.org/2000/svg">
<path d="M42.9301 0C35.0821 0 27.2818 3.23152 21.7325 8.7809C18.2362 12.2772 15.6626 16.6667 14.2353 21.3986C10.8048 22.0462 7.56487 23.7205 5.09444 26.1909C1.87447 29.4109 0 33.9353 0 38.489C0 43.0428 1.87447 47.5687 5.09444 50.7887C8.31445 54.0086 12.8403 55.8831 17.3941 55.8831H95.2974C98.204 55.8831 101.093 54.6872 103.149 52.6319C105.204 50.5766 106.4 47.6872 106.4 44.7805C106.4 41.8738 105.204 38.986 103.149 36.9307C101.106 34.8879 98.2394 33.6955 95.3509 33.6808C94.7872 28.4144 92.4013 23.3454 88.6531 19.5973C84.337 15.2812 78.2709 12.768 72.1669 12.768C70.685 12.768 69.2063 12.92 67.7533 13.206C66.6901 11.6194 65.4793 10.1324 64.1277 8.7809C58.5783 3.23152 50.7781 0 42.9301 0Z" fill="#FBCFE8"/>
<path d="M41.3484 2.79999C33.7896 2.79999 26.2767 5.87635 20.9318 11.1593C17.5643 14.4877 15.0855 18.6665 13.7109 23.1712C10.4067 23.7877 7.28617 25.3816 4.90675 27.7334C1.80541 30.7988 0 35.1059 0 39.4411C0 43.7762 1.80541 48.0848 4.90675 51.1501C8.00813 54.2155 12.3673 56 16.7532 56H91.7864C94.586 56 97.3689 54.8615 99.3485 52.9049C101.328 50.9483 102.48 48.1976 102.48 45.4305C102.48 42.6633 101.328 39.9142 99.3485 37.9575C97.3811 36.0129 94.62 34.8776 91.8379 34.8637C91.295 29.8502 88.997 25.0246 85.387 21.4564C81.2298 17.3475 75.3872 14.955 69.5082 14.955C68.0808 14.955 66.6566 15.0996 65.2572 15.372C64.2331 13.8615 63.0669 12.4459 61.7651 11.1593C56.4202 5.87635 48.9073 2.79999 41.3484 2.79999Z" fill="#FDF2F8"/>
</svg>
