<svg width="149" height="79" viewBox="0 0 149 79" fill="none" xmlns="http://www.w3.org/2000/svg">
<path d="M88.8818 0C99.8718 0 110.795 4.54928 118.566 12.3616C123.463 17.2836 127.067 23.4632 129.065 30.1246C133.869 31.0363 138.406 33.3934 141.866 36.8712C146.375 41.4042 149 47.7736 149 54.1843C149 60.5951 146.375 66.9665 141.866 71.4995C137.357 76.0326 131.019 78.6714 124.642 78.6714H15.5479C11.4774 78.6714 7.43126 76.9878 4.55305 74.0945C1.6748 71.201 0 67.1333 0 63.0413C0 58.9494 1.6748 54.8839 4.55305 51.9905C7.41357 49.1147 11.428 47.436 15.473 47.4153C16.2623 40.0014 19.6035 32.8654 24.8523 27.5888C30.8965 21.5126 39.3913 17.9746 47.9391 17.9746C50.0144 17.9746 52.0851 18.1885 54.1199 18.5912C55.6088 16.3576 57.3044 14.2643 59.1972 12.3616C66.9683 4.54928 77.8916 0 88.8818 0Z" fill="#EDE9FE"/>
<path d="M91.0966 3.94176C101.682 3.94176 112.203 8.27262 119.688 15.7099C124.403 20.3956 127.875 26.2784 129.8 32.62C134.427 33.4879 138.797 35.7318 142.129 39.0426C146.472 43.358 149 49.4216 149 55.5245C149 61.6275 146.472 67.693 142.129 72.0084C137.786 76.3238 131.681 78.8359 125.539 78.8359H20.4646C16.5441 78.8359 12.647 77.2331 9.87479 74.4787C7.10257 71.7242 5.48949 67.8518 5.48949 63.9563C5.48949 60.0608 7.10257 56.1905 9.87479 53.436C12.6299 50.6983 16.4964 49.1002 20.3924 49.0805C21.1527 42.0226 24.3707 35.2292 29.4262 30.2059C35.2477 24.4215 43.4295 21.0533 51.6624 21.0533C53.6613 21.0533 55.6557 21.257 57.6154 21.6404C59.0495 19.514 60.6827 17.5212 62.5057 15.7099C69.9906 8.27262 80.5114 3.94176 91.0966 3.94176Z" fill="#F5F3FF"/>
</svg>
