<svg width="171" height="195" viewBox="0 0 171 195" fill="none" xmlns="http://www.w3.org/2000/svg">
<ellipse cx="85.0531" cy="170.106" rx="60.1596" ry="24.8936" fill="url(#paint0_linear_451_4419)"/>
<path fill-rule="evenodd" clip-rule="evenodd" d="M81.791 158.419C82.0051 158.543 82.1734 158.639 82.2925 158.706L82.4904 158.816C84.0701 159.683 86.0296 159.677 87.6107 158.819L87.8138 158.706C87.933 158.639 88.1012 158.543 88.3153 158.419C88.7435 158.171 89.3553 157.809 90.1245 157.336C91.6623 156.389 93.8331 154.992 96.4263 153.16C101.604 149.503 108.512 144.076 115.435 136.988C129.215 122.879 143.527 101.682 143.527 74.4216C143.527 42.1272 117.348 15.9475 85.0532 15.9475C52.7588 15.9475 26.5791 42.1272 26.5791 74.4216C26.5791 101.682 40.8916 122.879 54.6711 136.988C61.5945 144.076 68.5026 149.503 73.6801 153.16C76.2732 154.992 78.4441 156.389 79.9819 157.336C80.7511 157.809 81.3629 158.171 81.791 158.419ZM85.0532 95.6849C96.7966 95.6849 106.316 86.165 106.316 74.4216C106.316 62.6782 96.7966 53.1583 85.0532 53.1583C73.3098 53.1583 63.7899 62.6782 63.7899 74.4216C63.7899 86.165 73.3098 95.6849 85.0532 95.6849Z" fill="url(#paint1_linear_451_4419)"/>
<defs>
<linearGradient id="paint0_linear_451_4419" x1="85.0531" y1="145.213" x2="85.0531" y2="195" gradientUnits="userSpaceOnUse">
<stop stop-color="#312E81"/>
<stop offset="1" stop-color="#6366F1"/>
</linearGradient>
<linearGradient id="paint1_linear_451_4419" x1="85.0532" y1="15.9475" x2="85.0532" y2="159.465" gradientUnits="userSpaceOnUse">
<stop stop-color="#EE56A1"/>
<stop offset="1" stop-color="#F9B9DB"/>
</linearGradient>
</defs>
</svg>
