<svg width="93" height="57" viewBox="0 0 93 57" fill="none" xmlns="http://www.w3.org/2000/svg">
<path d="M28.9301 0.144531C21.0821 0.144531 13.2818 3.37605 7.73249 8.92543C4.23617 12.4217 1.66258 16.8113 0.235321 21.5431C-3.19521 22.1907 -6.43513 23.865 -8.90556 26.3354C-12.1255 29.5554 -14 34.0798 -14 38.6336C-14 43.1874 -12.1255 47.7132 -8.90556 50.9332C-5.68555 54.1532 -1.15968 56.0276 3.39407 56.0276H81.2974C84.204 56.0276 87.0934 54.8317 89.1487 52.7765C91.204 50.7212 92.4 47.8317 92.4 44.925C92.4 42.0184 91.204 39.1305 89.1487 37.0752C87.106 35.0325 84.2394 33.84 81.3509 33.8253C80.7872 28.559 78.4013 23.49 74.6531 19.7418C70.337 15.4257 64.2709 12.9125 58.1669 12.9125C56.685 12.9125 55.2063 13.0645 53.7533 13.3506C52.6901 11.7639 51.4793 10.277 50.1277 8.92543C44.5783 3.37605 36.7781 0.144531 28.9301 0.144531Z" fill="#FBCFE8"/>
<path d="M27.3484 2.94458C19.7896 2.94458 12.2767 6.02094 6.93182 11.3039C3.56431 14.6323 1.08554 18.8111 -0.289138 23.3158C-3.59328 23.9323 -6.71383 25.5262 -9.09325 27.878C-12.1946 30.9434 -14 35.2505 -14 39.5856C-14 43.9208 -12.1946 48.2294 -9.09325 51.2947C-5.99187 54.3601 -1.63274 56.1446 2.75324 56.1446H77.7864C80.586 56.1446 83.3689 55.006 85.3485 53.0495C87.3281 51.0929 88.48 48.3422 88.48 45.5751C88.48 42.8079 87.3281 40.0588 85.3485 38.1021C83.3811 36.1575 80.62 35.0222 77.8379 35.0083C77.295 29.9948 74.997 25.1691 71.387 21.601C67.2298 17.492 61.3872 15.0996 55.5082 15.0996C54.0808 15.0996 52.6566 15.2442 51.2572 15.5165C50.2331 14.0061 49.0669 12.5905 47.7651 11.3039C42.4202 6.02094 34.9073 2.94458 27.3484 2.94458Z" fill="#FDF2F8"/>
</svg>
